# xmcd
#
# Track frame offsets: 
#        157
#        15695
#        31025
#        47382
#        60085
#        74605
#        93597
#        113810
#        131217
#
# Disc length: 2013 seconds
#
# Revision: 2
# Processed by: cddbd v1.4PL0 Copyright (c) Steve Scherf et al.
# Submitted via: ExactAudioCopy v0.90b3
#
DISCID=6f07db09
DTITLE=Eddie Rabbitt - I Wanna Dance With You
DYEAR=1900
DGENRE=Country
TTITLE0=She's An Old Cadillac
TTITLE1=The Wanderer
TTITLE2=We Must Be Doin' Somethin' Right
TTITLE3=That's Why I Fell In Love With You
TTITLE4=I Wanna Dance With You
TTITLE5=He's A Cheater
TTITLE6=Rhonda
TTITLE7=Workin' Out
TTITLE8=I Don't Worry 'Bout You
EXTD=
EXTT0=
EXTT1=
EXTT2=
EXTT3=
EXTT4=
EXTT5=
EXTT6=
EXTT7=
EXTT8=
PLAYORDER=
